<svg width="12" height="20" viewBox="0 0 12 20" fill="none" xmlns="http://www.w3.org/2000/svg">
<path d="M11.5028 0.00323232L8.46282 0.00464646C8.46282 0.00464646 8.40123 0 8.29044 0C7.66668 0 4.51224 0.173308 3.65401 3.55578C3.64058 3.5933 3.35186 4.43997 3.34724 6.40901H0.463408C0.207626 6.40901 0 6.61661 0 6.87242V9.52963C0 9.78544 0.207626 9.99304 0.463408 9.99304H3.61739V19.5366C3.61739 19.7924 3.825 20 4.0808 20H7.69219C7.94797 20 8.15562 19.7924 8.15562 19.5366V10.0027H11.3198C11.5756 10.0027 11.7832 9.79514 11.7832 9.53933V6.87242C11.7832 6.61661 11.5756 6.40901 11.3198 6.40901H8.16206V5.26853C8.16206 4.50898 8.64403 3.69757 9.99721 3.69757H11.5028C11.7586 3.69757 11.9662 3.48997 11.9662 3.23416V0.466641C11.9662 0.210858 11.7591 0.00323232 11.5028 0.00323232ZM11.0394 2.77075H9.99721C8.08931 2.77075 7.23527 4.02522 7.23527 5.26855V6.87244C7.23527 7.12825 7.44287 7.33585 7.69865 7.33585H10.8563V9.07597H7.69219C7.43635 9.07597 7.22875 9.28358 7.22875 9.53938V19.0732H4.54421V9.52963C4.54421 9.27383 4.33661 9.06623 4.0808 9.06623H0.926817V7.33585H3.81434C3.93899 7.33585 4.05808 7.2858 4.14522 7.19683C4.23237 7.10787 4.28007 6.98785 4.27777 6.86317C4.23654 4.75558 4.52616 3.86813 4.54007 3.82318C5.22358 1.13583 7.58373 0.926817 8.29044 0.926817C8.35486 0.926817 8.39332 0.928686 8.43087 0.930075H11.0394V2.77075Z" fill="#EBA326"/>
</svg>
