<svg width="21" height="20" viewBox="0 0 21 20" fill="none" xmlns="http://www.w3.org/2000/svg">
<path d="M10.9662 5.30612C10.0378 5.30612 9.13031 5.58141 8.35841 6.09718C7.5865 6.61295 6.98488 7.34604 6.62961 8.20373C6.27434 9.06143 6.18139 10.0052 6.3625 10.9157C6.54362 11.8263 6.99066 12.6626 7.64711 13.3191C8.30357 13.9755 9.13993 14.4226 10.0505 14.6037C10.961 14.7848 11.9048 14.6918 12.7625 14.3366C13.6202 13.9813 14.3532 13.3797 14.869 12.6078C15.3848 11.8359 15.6601 10.9284 15.6601 10C15.6586 8.75554 15.1637 7.56246 14.2837 6.68249C13.4037 5.80252 12.2106 5.30754 10.9662 5.30612ZM10.9662 13.4694C10.28 13.4694 9.60924 13.2659 9.0387 12.8847C8.46816 12.5035 8.02348 11.9616 7.76089 11.3277C7.4983 10.6937 7.42959 9.99615 7.56346 9.32316C7.69733 8.65016 8.02776 8.03197 8.51296 7.54677C8.99816 7.06157 9.61635 6.73114 10.2893 6.59728C10.9623 6.46341 11.6599 6.53211 12.2939 6.7947C12.9278 7.05729 13.4697 7.50197 13.8509 8.07251C14.2321 8.64305 14.4356 9.31382 14.4356 10C14.4345 10.9198 14.0687 11.8017 13.4183 12.4521C12.7679 13.1025 11.886 13.4683 10.9662 13.4694ZM15.456 0H6.47639C5.0155 0.00166257 3.61493 0.582734 2.58192 1.61574C1.54892 2.64874 0.967849 4.04932 0.966187 5.5102V14.4898C0.967849 15.9507 1.54892 17.3513 2.58192 18.3843C3.61493 19.4173 5.0155 19.9983 6.47639 20H15.456C16.9169 19.9983 18.3174 19.4173 19.3504 18.3843C20.3835 17.3513 20.9645 15.9507 20.9662 14.4898V5.5102C20.9645 4.04932 20.3835 2.64874 19.3504 1.61574C18.3174 0.582734 16.9169 0.00166257 15.456 0ZM19.7417 14.4898C19.7404 15.626 19.2885 16.7154 18.485 17.5188C17.6816 18.3223 16.5922 18.7742 15.456 18.7755H6.47639C5.34014 18.7742 4.25079 18.3223 3.44734 17.5188C2.64389 16.7154 2.19195 15.626 2.19068 14.4898V5.5102C2.19195 4.37395 2.64389 3.28461 3.44734 2.48115C4.25079 1.6777 5.34014 1.22576 6.47639 1.22449H15.456C16.5922 1.22576 17.6816 1.6777 18.485 2.48115C19.2885 3.28461 19.7404 4.37395 19.7417 5.5102V14.4898ZM17.2927 4.69388C17.2927 4.8957 17.2329 5.09298 17.1207 5.26079C17.0086 5.42859 16.8493 5.55938 16.6628 5.63661C16.4763 5.71384 16.2712 5.73405 16.0732 5.69468C15.8753 5.65531 15.6935 5.55812 15.5508 5.41542C15.4081 5.27271 15.3109 5.09089 15.2715 4.89295C15.2321 4.69501 15.2523 4.48984 15.3296 4.30338C15.4068 4.11693 15.5376 3.95756 15.7054 3.84544C15.8732 3.73332 16.0705 3.67347 16.2723 3.67347C16.5428 3.67379 16.8022 3.7814 16.9935 3.97269C17.1848 4.16399 17.2924 4.42335 17.2927 4.69388Z" fill="#EBA326"/>
</svg>
