<svg width="26" height="20" viewBox="0 0 26 20" fill="none" xmlns="http://www.w3.org/2000/svg">
<path d="M8.83004 20C6.1225 20 3.48968 19.2289 1.21536 17.769C1.00307 17.6325 0.913192 17.3683 0.99766 17.1301C1.08213 16.8918 1.32363 16.7402 1.57166 16.7759C3.47886 16.9979 5.46944 16.6102 7.13947 15.655C5.48787 15.159 4.14493 13.8799 3.60234 12.1839C3.54386 12.0009 3.58609 11.8016 3.71387 11.6587C3.79185 11.572 3.89471 11.5136 4.00629 11.4898C2.71641 10.5074 1.90198 8.95654 1.90198 7.25296C1.90198 7.06125 2.0038 6.85442 2.16947 6.75693C2.33519 6.65945 2.53987 6.62916 2.70666 6.72011C2.75431 6.74718 2.80303 6.77317 2.85179 6.79702C2.26588 5.93167 1.94099 4.89631 1.94099 3.81546C1.94099 2.87755 2.18898 1.95269 2.6612 1.1426C2.75001 0.988824 2.90919 0.889189 3.08681 0.875098C3.26335 0.862121 3.43555 0.935763 3.54816 1.07222C5.73909 3.75917 8.91017 5.46276 12.3304 5.81257C12.3152 5.64905 12.3076 5.48226 12.3076 5.31762C12.3076 2.3859 14.6935 0 17.6252 0C18.9865 0 20.3046 0.527431 21.288 1.45882C22.1923 1.25194 23.0587 0.904316 23.8677 0.424532C24.0616 0.311881 24.3042 0.328122 24.4807 0.466767C24.6562 0.607561 24.7277 0.841502 24.6594 1.05594C24.4872 1.5942 24.2316 2.09778 23.9035 2.54942C24.1287 2.47144 24.3497 2.38371 24.5674 2.28734C24.7851 2.18771 25.046 2.24837 25.2009 2.43462C25.3558 2.61873 25.3699 2.88407 25.2367 3.08442C24.6074 4.02233 23.8407 4.83999 22.9558 5.51904C22.9591 5.63599 22.9601 5.75406 22.9601 5.87101C22.9602 12.8153 17.674 20 8.83004 20ZM3.70738 17.8687C5.31786 18.5585 7.05608 18.917 8.83004 18.917C16.9971 18.917 21.8771 12.2835 21.8771 5.86993C21.8771 5.67174 21.8717 5.47247 21.8642 5.27427C21.8566 5.09232 21.9411 4.91904 22.0884 4.81292C22.4783 4.53133 22.8443 4.22053 23.1833 3.88261C22.8302 3.96386 22.4718 4.02667 22.1089 4.06998C21.8577 4.10573 21.6151 3.95084 21.5317 3.70826C21.4494 3.46676 21.5469 3.20033 21.7656 3.06818C22.1956 2.81043 22.5725 2.4812 22.8822 2.10105C22.3418 2.30792 21.7851 2.46925 21.2166 2.57972C21.0346 2.61765 20.845 2.55699 20.7173 2.41946C19.9202 1.57035 18.7927 1.08301 17.6252 1.08301C15.2903 1.08301 13.3907 2.98259 13.3907 5.31758C13.3907 5.64141 13.4275 5.96738 13.5011 6.28364C13.539 6.44828 13.4979 6.62263 13.3885 6.75367C13.2802 6.88364 13.1166 6.97352 12.9466 6.94645C9.25027 6.76016 5.76835 5.11724 3.26657 2.40103C3.10631 2.85374 3.02399 3.33241 3.02399 3.81546C3.02399 5.23638 3.72796 6.55225 4.90627 7.33962C5.10772 7.47392 5.19542 7.72406 5.12178 7.95478C5.04813 8.18438 4.81961 8.32299 4.59005 8.33166C4.07344 8.31542 3.56006 8.22335 3.07057 8.05875C3.40522 9.73634 4.69509 11.0663 6.38029 11.4053C6.6272 11.4551 6.80697 11.6663 6.81457 11.9175C6.82325 12.1677 6.65865 12.3919 6.41711 12.459C5.95034 12.5858 5.45973 12.6572 4.97995 12.6475C5.70557 13.9308 7.06802 14.7658 8.58857 14.7962C8.8171 14.8005 9.01852 14.95 9.09109 15.1666C9.16365 15.3832 9.09109 15.6236 8.91128 15.7645C7.38965 16.9568 5.60697 17.6737 3.70738 17.8687Z" fill="#EBA326"/>
</svg>
