<svg xmlns="http://www.w3.org/2000/svg" viewBox="0 0 609.96 366.77"><defs><style>.cls-1{fill:#d8ceb3;}.cls-2{fill:#eba326;}.cls-3{fill:#e5dbb1;stroke:#e5dbb1;stroke-miterlimit:10;stroke-width:4px;}</style></defs><g id="Layer_2" data-name="Layer 2"><g id="Layer_1-2" data-name="Layer 1"><path class="cls-1" d="M136.52,347.58h-5.35v16.58H129V347.58h-5.34v-2h12.86Z"/><path class="cls-1" d="M156.94,364.16h-2.59l-3.1-5.2a11.85,11.85,0,0,0-.83-1.23,5.05,5.05,0,0,0-.82-.84,2.92,2.92,0,0,0-.91-.47,3.64,3.64,0,0,0-1.09-.15h-1.78v7.89h-2.17V345.62h5.53a7.93,7.93,0,0,1,2.24.3,4.93,4.93,0,0,1,1.79.93,4.29,4.29,0,0,1,1.18,1.54,5.06,5.06,0,0,1,.43,2.17,5.36,5.36,0,0,1-.29,1.78,4.79,4.79,0,0,1-.83,1.44,5.22,5.22,0,0,1-1.29,1.08,6.59,6.59,0,0,1-1.7.69v.05a4.33,4.33,0,0,1,.8.47,4.86,4.86,0,0,1,.66.63,9.72,9.72,0,0,1,.61.82c.2.31.43.66.68,1.07Zm-11.12-16.58v6.73h3a4.29,4.29,0,0,0,1.5-.25,3.58,3.58,0,0,0,1.2-.7,3.29,3.29,0,0,0,.79-1.13,3.73,3.73,0,0,0,.28-1.49,2.9,2.9,0,0,0-1-2.32,4.12,4.12,0,0,0-2.79-.84Z"/><path class="cls-1" d="M178.05,364.16h-2.41l-2-5.2h-7.86l-1.85,5.2h-2.42l7.11-18.54h2.25ZM173,357l-2.91-7.9a7.43,7.43,0,0,1-.29-1.24h-.05a6.73,6.73,0,0,1-.29,1.24l-2.89,7.9Z"/><path class="cls-1" d="M197.09,346.14,186.23,362.2h10.6v2H183v-.61l10.77-16h-9.91v-2h13.24Z"/><path class="cls-1" d="M214.13,364.16H204.3V345.62h9.42v2h-7.24v6.17h6.7v2h-6.7v6.49h7.65Z"/><path class="cls-1" d="M236.86,364.16H234.2l-9.55-14.78a6,6,0,0,1-.59-1.16H224a18.93,18.93,0,0,1,.1,2.54v13.4h-2.17V345.62h2.82L234,360.17c.38.6.63,1,.75,1.24h0a19.12,19.12,0,0,1-.13-2.73V345.62h2.17Z"/><path class="cls-1" d="M245.93,364.16V345.62h5.12q9.81,0,9.81,9a9.11,9.11,0,0,1-2.73,6.9,10.11,10.11,0,0,1-7.28,2.6Zm2.18-16.58V362.2h2.76a7.81,7.81,0,0,0,5.68-2,7.32,7.32,0,0,0,2-5.53q0-7.12-7.58-7.13Z"/><path class="cls-1" d="M276.19,364.47a8.12,8.12,0,0,1-6.32-2.6,9.63,9.63,0,0,1-2.37-6.76,10.2,10.2,0,0,1,2.42-7.14,8.45,8.45,0,0,1,6.58-2.66,8,8,0,0,1,6.19,2.58,9.71,9.71,0,0,1,2.34,6.77,10.24,10.24,0,0,1-2.4,7.17A8.28,8.28,0,0,1,276.19,364.47Zm.15-17.2a6,6,0,0,0-4.74,2.11,9.36,9.36,0,0,0-.05,11.05,5.82,5.82,0,0,0,4.64,2.09,6.08,6.08,0,0,0,4.81-2,8.17,8.17,0,0,0,1.76-5.58,8.48,8.48,0,0,0-1.71-5.67A5.85,5.85,0,0,0,276.34,347.27Z"/><path class="cls-1" d="M303.49,363.41v-2.56a5,5,0,0,0,1.06.7,7.73,7.73,0,0,0,1.29.52,8.16,8.16,0,0,0,1.36.33,7.42,7.42,0,0,0,1.27.12,5,5,0,0,0,3-.74,2.79,2.79,0,0,0,.66-3.45,3.76,3.76,0,0,0-.91-1,9.68,9.68,0,0,0-1.38-.87l-1.71-.89c-.65-.33-1.25-.66-1.81-1a7.28,7.28,0,0,1-1.46-1.11,4.63,4.63,0,0,1-1-1.38,4.35,4.35,0,0,1-.35-1.8,4.23,4.23,0,0,1,.55-2.2,4.81,4.81,0,0,1,1.46-1.55,6.57,6.57,0,0,1,2.07-.9,9.31,9.31,0,0,1,2.36-.3,9,9,0,0,1,4,.66v2.44a7.22,7.22,0,0,0-4.21-1.14,7,7,0,0,0-1.43.15,3.9,3.9,0,0,0-1.26.49,2.78,2.78,0,0,0-.91.86,2.36,2.36,0,0,0-.35,1.3,2.65,2.65,0,0,0,.27,1.23,2.94,2.94,0,0,0,.78.94,8.34,8.34,0,0,0,1.26.83l1.71.88a21,21,0,0,1,1.89,1,8.44,8.44,0,0,1,1.57,1.2,5.5,5.5,0,0,1,1.06,1.46,4,4,0,0,1,.4,1.84,4.63,4.63,0,0,1-.54,2.32,4.4,4.4,0,0,1-1.45,1.55,6.49,6.49,0,0,1-2.1.86,11.93,11.93,0,0,1-2.51.26,9.47,9.47,0,0,1-1.08-.07q-.65-.07-1.32-.21a11.38,11.38,0,0,1-1.28-.33A3.92,3.92,0,0,1,303.49,363.41Z"/><path class="cls-1" d="M337,364.16h-2.4l-2-5.2h-7.86l-1.85,5.2h-2.42l7.11-18.54h2.25ZM331.91,357l-2.91-7.9a7.43,7.43,0,0,1-.29-1.24h0a6.73,6.73,0,0,1-.29,1.24l-2.89,7.9Z"/><path class="cls-1" d="M343.93,364.16V345.62h5.28A5.73,5.73,0,0,1,353,346.8a3.79,3.79,0,0,1,1.41,3.06,4.49,4.49,0,0,1-.85,2.74,4.62,4.62,0,0,1-2.36,1.66v.05a4.72,4.72,0,0,1,3,1.41,4.37,4.37,0,0,1,1.13,3.11,4.86,4.86,0,0,1-1.71,3.86,6.36,6.36,0,0,1-4.3,1.47Zm2.17-16.58v6h2.23a4.22,4.22,0,0,0,2.8-.86,3,3,0,0,0,1-2.42c0-1.8-1.18-2.71-3.55-2.71Zm0,7.94v6.68h2.95a4.43,4.43,0,0,0,3-.91,3.1,3.1,0,0,0,1.05-2.48q0-3.29-4.47-3.29Z"/><path class="cls-1" d="M370.8,364.47a8.12,8.12,0,0,1-6.32-2.6,9.63,9.63,0,0,1-2.37-6.76,10.2,10.2,0,0,1,2.42-7.14,8.45,8.45,0,0,1,6.58-2.66,8,8,0,0,1,6.19,2.58,9.71,9.71,0,0,1,2.34,6.77,10.24,10.24,0,0,1-2.4,7.17A8.3,8.3,0,0,1,370.8,364.47Zm.15-17.2a6,6,0,0,0-4.74,2.11,9.36,9.36,0,0,0,0,11.05,5.82,5.82,0,0,0,4.64,2.09,6.1,6.1,0,0,0,4.81-2,8.17,8.17,0,0,0,1.76-5.58,8.48,8.48,0,0,0-1.71-5.67A5.85,5.85,0,0,0,371,347.27Z"/><path class="cls-1" d="M400.79,364.16h-2.58L395.1,359a11.9,11.9,0,0,0-.82-1.23,5.09,5.09,0,0,0-.83-.84,3,3,0,0,0-.9-.47,3.68,3.68,0,0,0-1.09-.15h-1.79v7.89H387.5V345.62H393a8.05,8.05,0,0,1,2.25.3,4.88,4.88,0,0,1,1.78.93,4.32,4.32,0,0,1,1.19,1.54,5.22,5.22,0,0,1,.42,2.17,5.11,5.11,0,0,1-.29,1.78,4.59,4.59,0,0,1-.83,1.44,4.88,4.88,0,0,1-1.29,1.08,6.31,6.31,0,0,1-1.7.69v.05a4.43,4.43,0,0,1,.81.47,4.8,4.8,0,0,1,.65.63,9.73,9.73,0,0,1,.62.82c.2.31.42.66.67,1.07Zm-11.12-16.58v6.73h2.95a4.35,4.35,0,0,0,1.51-.25,3.44,3.44,0,0,0,1.19-.7,3.16,3.16,0,0,0,.79-1.13,3.74,3.74,0,0,0,.29-1.49,2.88,2.88,0,0,0-1-2.32,4.11,4.11,0,0,0-2.78-.84Z"/><path class="cls-1" d="M433.37,364.16H431l-2-5.2h-7.86l-1.85,5.2h-2.42L424,345.62h2.25Zm-7-20.25h-1.64l-3.39-4.24h2.17Zm1.9,13.1-2.91-7.9a7.43,7.43,0,0,1-.29-1.24h0a6.73,6.73,0,0,1-.29,1.24l-2.89,7.9Z"/><path class="cls-1" d="M450.91,363.41v-2.56a4.92,4.92,0,0,0,1,.7,7.83,7.83,0,0,0,1.3.52,8.16,8.16,0,0,0,1.36.33,7.42,7.42,0,0,0,1.27.12,5,5,0,0,0,3-.74,2.79,2.79,0,0,0,.66-3.45,3.76,3.76,0,0,0-.91-1,9.68,9.68,0,0,0-1.38-.87l-1.71-.89c-.65-.33-1.25-.66-1.81-1a7.28,7.28,0,0,1-1.46-1.11,4.46,4.46,0,0,1-1-1.38,4.19,4.19,0,0,1-.36-1.8,4.23,4.23,0,0,1,.56-2.2,4.81,4.81,0,0,1,1.46-1.55,6.61,6.61,0,0,1,2.06-.9,9.45,9.45,0,0,1,2.37-.3,9,9,0,0,1,4,.66v2.44a7.22,7.22,0,0,0-4.21-1.14,7,7,0,0,0-1.43.15,4,4,0,0,0-1.27.49,2.74,2.74,0,0,0-.9.86,2.36,2.36,0,0,0-.35,1.3,2.65,2.65,0,0,0,.27,1.23,2.94,2.94,0,0,0,.78.94,7.86,7.86,0,0,0,1.26.83l1.71.88a21,21,0,0,1,1.89,1,8.78,8.78,0,0,1,1.57,1.2,5.5,5.5,0,0,1,1.06,1.46,4.18,4.18,0,0,1,.4,1.84,4.63,4.63,0,0,1-.54,2.32,4.4,4.4,0,0,1-1.45,1.55,6.58,6.58,0,0,1-2.1.86,11.93,11.93,0,0,1-2.51.26,9.77,9.77,0,0,1-1.09-.07c-.43,0-.87-.12-1.31-.21a11.38,11.38,0,0,1-1.28-.33A3.92,3.92,0,0,1,450.91,363.41Z"/><path class="cls-1" d="M483.62,356.66q0,7.81-7.05,7.81-6.75,0-6.75-7.51V345.62H472v11.2q0,5.7,4.81,5.7,4.63,0,4.64-5.51V345.62h2.17Z"/><path class="cls-1" d="M506.82,364.16h-2.41l-2-5.2h-7.86l-1.85,5.2h-2.42l7.12-18.54h2.25ZM501.73,357l-2.91-7.9a7.65,7.65,0,0,1-.28-1.24h-.05a7.52,7.52,0,0,1-.3,1.24l-2.88,7.9Z"/><path class="cls-1" d="M544.13,364.16H542V351.72c0-1,.06-2.18.18-3.61h-.06a11.19,11.19,0,0,1-.55,1.8l-6.34,14.25h-1.06L527.82,350a11.29,11.29,0,0,1-.56-1.91h0c.07.75.11,2,.11,3.64v12.41h-2.1V345.62h2.87l5.69,12.93a15.19,15.19,0,0,1,.85,2.22h.08c.37-1,.67-1.77.89-2.27l5.81-12.88h2.72Z"/><path class="cls-1" d="M563,364.16h-9.83V345.62h9.41v2h-7.24v6.17h6.7v2h-6.7v6.49H563Z"/><path class="cls-1" d="M570,363.41v-2.56a5.27,5.27,0,0,0,1.06.7,8.09,8.09,0,0,0,1.29.52,8.41,8.41,0,0,0,1.36.33,7.42,7.42,0,0,0,1.27.12,5,5,0,0,0,3-.74,2.8,2.8,0,0,0,.65-3.45,3.76,3.76,0,0,0-.91-1,9.54,9.54,0,0,0-1.37-.87l-1.72-.89c-.64-.33-1.25-.66-1.81-1a7.28,7.28,0,0,1-1.46-1.11,4.63,4.63,0,0,1-1-1.38,4.35,4.35,0,0,1-.35-1.8,4.14,4.14,0,0,1,.56-2.2,4.6,4.6,0,0,1,1.46-1.55,6.51,6.51,0,0,1,2.06-.9,9.37,9.37,0,0,1,2.36-.3,9,9,0,0,1,4,.66v2.44a7.22,7.22,0,0,0-4.21-1.14,6.78,6.78,0,0,0-1.42.15,3.87,3.87,0,0,0-1.27.49,2.88,2.88,0,0,0-.91.86,2.36,2.36,0,0,0-.35,1.3,2.65,2.65,0,0,0,.27,1.23,3.23,3.23,0,0,0,.78.94,8.88,8.88,0,0,0,1.26.83c.5.26,1.07.56,1.72.88s1.29.67,1.88,1a8.44,8.44,0,0,1,1.57,1.2,5.54,5.54,0,0,1,1.07,1.46,4.18,4.18,0,0,1,.39,1.84,4.63,4.63,0,0,1-.54,2.32,4.37,4.37,0,0,1-1.44,1.55,6.54,6.54,0,0,1-2.11.86,11.9,11.9,0,0,1-2.5.26,9.5,9.5,0,0,1-1.09-.07q-.64-.07-1.32-.21a11.19,11.19,0,0,1-1.27-.33A4,4,0,0,1,570,363.41Z"/><path class="cls-1" d="M603.45,364.16h-2.4l-2-5.2h-7.86l-1.85,5.2H587l7.11-18.54h2.26ZM598.37,357l-2.91-7.9a7.65,7.65,0,0,1-.28-1.24h-.06a6.73,6.73,0,0,1-.29,1.24l-2.89,7.9Z"/><path class="cls-2" d="M56.18,359.42q-8.64,7.35-23,7.35t-22.47-6.2a19.68,19.68,0,0,1-8.07-16.42q0-10.23,5.91-16.28a19.2,19.2,0,0,1,14.26-6.05A28.87,28.87,0,0,1,36.88,325q5.76,3.17,8.07,6.91,6.33,10.1,12,10.09t9.93-9.8L79,303.67,11.53,176.61H0v-5.77H77.51v5.77H63.1l38.61,76.06,33.13-76.06h-23v-5.77h47.26v5.77H141.76L72.61,335.36Q64.83,352.07,56.18,359.42Z"/><path class="cls-2" d="M290.14,293.15a75.36,75.36,0,0,1-20.74,9.94A71.77,71.77,0,0,1,249.66,306a43,43,0,0,1-17.72-3.6,50.57,50.57,0,0,1-12.82-7.78,82.11,82.11,0,0,0-10.52-7.78,20.79,20.79,0,0,0-10.95-3.6q-5.18,0-9.07,5.76t-3.89,14.41h-5.48V116.1h-14.4v-5.76h57.62v70.88q4.6-7.78,15.13-12.25a55.74,55.74,0,0,1,22-4.47q21.88,0,38.18,19.16t16.27,53.45q0,20.17-6.62,34.58T290.14,293.15Zm-67.71-34.72q0,21.9,4.9,31.55t15.7,9.65q10.82,0,19.16-16.27t8.36-45.82q0-29.52-8.79-45.38t-20.6-15.84q-11.82,0-18.73,13.54Z"/><path class="cls-2" d="M461.57,245.76h-87q2.88,50.72,39.47,50.71,9.8,0,22.33-4.61t18.3-13l4,2.88q-6.35,10.67-21.61,17.58a73.17,73.17,0,0,1-30.39,6.91,112.83,112.83,0,0,1-27.23-3A82.14,82.14,0,0,1,355.83,293q-11.52-7.2-18-21.61t-6.48-34.86q0-34.86,19.31-51.72T397.47,168q27.51,0,45.81,18.44T461.57,245.76ZM374.27,240h47q0-26.51-5.62-46.38t-18-19.89q-12.39,0-17.86,19.17t-5.48,43.93Z"/><path class="cls-2" d="M610,245.76h-87q2.88,50.72,39.48,50.71,9.8,0,22.33-4.61t18.29-13l4,2.88q-6.35,10.67-21.61,17.58a73.25,73.25,0,0,1-30.4,6.91,112.89,112.89,0,0,1-27.23-3A82.08,82.08,0,0,1,504.22,293q-11.54-7.2-18-21.61t-6.48-34.86q0-34.86,19.3-51.72T545.85,168q27.51,0,45.81,18.44T610,245.76ZM522.66,240h47q0-26.51-5.62-46.38t-18-19.89q-12.39,0-17.86,19.17t-5.47,43.93Z"/><path class="cls-3" d="M438.22,2V2l3,0Z"/><path class="cls-3" d="M478.47,30.15a2,2,0,0,0-1.64-.34,26.85,26.85,0,0,1-5.51.58A26.67,26.67,0,0,1,444.71,3.73l0-.39L444.55,2h-3.31l-3,0h-.28l.12,1.62v.16a26.5,26.5,0,0,1-22.37,26.34,27,27,0,0,1-12.17-.88,2,2,0,0,0-1.83.29l-5.19,3.89-.13.13,2,.87a32.89,32.89,0,0,0,13,2.67,33.36,33.36,0,0,0,30-18.82A33.35,33.35,0,0,0,471.32,37a33.08,33.08,0,0,0,10.73-1.78l2.22-.76Zm-35.26-19a2.62,2.62,0,0,0,0-.28h0A2.62,2.62,0,0,0,443.21,11.15Z"/><path class="cls-3" d="M443.22,10.87a2.62,2.62,0,0,0,0,.28,2.62,2.62,0,0,0,0-.28Z"/><path class="cls-3" d="M522.41,36.17a52,52,0,0,0-34,12.65L440.68,84.58h0L393,48.82a52.23,52.23,0,1,0,.58,78.62l47.09-35.33h0l47.09,35.33a52.21,52.21,0,1,0,34.63-91.27Zm-116.1,74.18L390,122.58h0a46.21,46.21,0,1,1-.76-69.09l17,12.77,29.42,22.08Zm116.1,24.26a46,46,0,0,1-31-12h0L475,110.35l-29.35-22,29.42-22.08,17-12.77a46.21,46.21,0,1,1,30.29,81.11Z"/><path class="cls-3" d="M454.87,132.17a2,2,0,0,0-1.53-.36,73.79,73.79,0,0,1-12.52,1.06A72.79,72.79,0,0,1,428,131.74a1.94,1.94,0,0,0-1.54.37l-6.63,5a80.75,80.75,0,0,0,41.75.09Z"/></g></g></svg>