<svg xmlns="http://www.w3.org/2000/svg" viewBox="0 0 271.91 142.61"><defs><style>.cls-1{fill:#e5dbb1;stroke:#e5dbb1;stroke-miterlimit:10;stroke-width:4px;}</style></defs><g id="Layer_2" data-name="Layer 2"><g id="Layer_1-2" data-name="Layer 1"><path class="cls-1" d="M133.5,2V2l3,0Z"/><path class="cls-1" d="M173.74,30.15a2,2,0,0,0-1.63-.34,26.85,26.85,0,0,1-5.51.58A26.67,26.67,0,0,1,140,3.73l0-.39L139.83,2h-3.31l-3,0h-.28l.12,1.62v.16A26.5,26.5,0,0,1,111,30.16a27,27,0,0,1-12.16-.88,2,2,0,0,0-1.83.29l-5.19,3.89-.13.13,2,.87a32.89,32.89,0,0,0,13,2.67,33.36,33.36,0,0,0,30-18.82A33.35,33.35,0,0,0,166.6,37a33.08,33.08,0,0,0,10.73-1.78l2.22-.76Zm-35.25-19a2.62,2.62,0,0,0,0-.28h0A2.62,2.62,0,0,0,138.49,11.15Z"/><path class="cls-1" d="M138.5,10.87a2.62,2.62,0,0,0,0,.28,2.62,2.62,0,0,0,0-.28Z"/><path class="cls-1" d="M217.69,36.17a52,52,0,0,0-34.05,12.65L136,84.58h0L88.27,48.82a52.23,52.23,0,1,0,.58,78.62l47.09-35.33h0l47.09,35.33a52.21,52.21,0,1,0,34.63-91.27Zm-116.1,74.18L85.28,122.58h0a46.21,46.21,0,1,1-.76-69.09l17,12.77,29.42,22.08Zm116.1,24.26a46,46,0,0,1-31.05-12h0l-16.31-12.23L141,88.35l29.42-22.08,17-12.77a46.21,46.21,0,1,1,30.29,81.11Z"/><path class="cls-1" d="M150.14,132.17a1.94,1.94,0,0,0-1.53-.36,73.68,73.68,0,0,1-12.51,1.06,72.71,72.71,0,0,1-12.86-1.13,1.93,1.93,0,0,0-1.54.37l-6.63,5a80.75,80.75,0,0,0,41.75.09Z"/></g></g></svg>